<mxfile host="app.diagrams.net" modified="2023-10-08T11:17:38.353Z" agent="Mozilla/5.0 (Windows NT 10.0; Win64; x64) AppleWebKit/537.36 (KHTML, like Gecko) Chrome/117.0.0.0 Safari/537.36" etag="mebXdvLjfqR0vr8dsf0o" version="22.0.4" type="device">
  <diagram name="Страница — 1" id="UUIv-CyLAzV-LKLumnwl">
    <mxGraphModel dx="682" dy="434" grid="1" gridSize="10" guides="1" tooltips="1" connect="1" arrows="1" fold="1" page="1" pageScale="1" pageWidth="826" pageHeight="1169" math="0" shadow="0">
      <root>
        <mxCell id="0" />
        <mxCell id="1" parent="0" />
        <mxCell id="1ZE-qpVFjCrr7qoj35lz-1" value="" style="strokeWidth=1;shadow=0;dashed=0;align=center;html=1;shape=mxgraph.mockup.containers.rrect;rSize=0;strokeColor=#666666;" vertex="1" parent="1">
          <mxGeometry x="320" y="160" width="120" height="240" as="geometry" />
        </mxCell>
        <mxCell id="1ZE-qpVFjCrr7qoj35lz-2" value="" style="verticalLabelPosition=bottom;shadow=0;dashed=0;align=center;html=1;verticalAlign=top;strokeWidth=1;shape=mxgraph.mockup.containers.userMale;strokeColor=#666666;strokeColor2=#008cff;" vertex="1" parent="1">
          <mxGeometry x="404.99" y="180" width="20" height="20" as="geometry" />
        </mxCell>
        <mxCell id="1ZE-qpVFjCrr7qoj35lz-3" value="&lt;span style=&quot;font-size: 8px;&quot;&gt;Вибрати пісню&lt;/span&gt;" style="strokeWidth=1;shadow=0;dashed=0;align=center;html=1;shape=mxgraph.mockup.buttons.button;strokeColor=#ffffff;fontColor=#ffffff;mainText=;buttonStyle=round;fontSize=17;fontStyle=1;fillColor=#008cff;whiteSpace=wrap;" vertex="1" parent="1">
          <mxGeometry x="329.99" y="220" width="100" height="20" as="geometry" />
        </mxCell>
        <mxCell id="1ZE-qpVFjCrr7qoj35lz-4" value="&lt;span style=&quot;font-size: 8px;&quot;&gt;Записи пісень&lt;/span&gt;" style="strokeWidth=1;shadow=0;dashed=0;align=center;html=1;shape=mxgraph.mockup.buttons.button;strokeColor=#ffffff;fontColor=#ffffff;mainText=;buttonStyle=round;fontSize=17;fontStyle=1;fillColor=#008cff;whiteSpace=wrap;" vertex="1" parent="1">
          <mxGeometry x="329.99" y="265" width="100" height="20" as="geometry" />
        </mxCell>
        <mxCell id="1ZE-qpVFjCrr7qoj35lz-5" value="" style="strokeWidth=1;shadow=0;dashed=0;align=center;html=1;shape=mxgraph.mockup.containers.rrect;rSize=0;strokeColor=#666666;" vertex="1" parent="1">
          <mxGeometry x="519.99" y="160" width="120" height="240" as="geometry" />
        </mxCell>
        <mxCell id="1ZE-qpVFjCrr7qoj35lz-6" value="&lt;font style=&quot;font-size: 10px;&quot; color=&quot;#ffffff&quot;&gt;Рекомендовані пісні&lt;/font&gt;" style="strokeWidth=1;shadow=0;dashed=0;align=center;html=1;shape=mxgraph.mockup.buttons.multiButton;fillColor=#008cff;strokeColor=#FFFFFF;mainText=;subText=;" vertex="1" parent="1">
          <mxGeometry x="522.49" y="177.5" width="115" height="25" as="geometry" />
        </mxCell>
        <mxCell id="1ZE-qpVFjCrr7qoj35lz-7" value="" style="strokeWidth=1;shadow=0;dashed=0;align=center;html=1;shape=mxgraph.mockup.anchor;fontSize=16;fontColor=#ffffff;fontStyle=1;whiteSpace=wrap;" vertex="1" parent="1ZE-qpVFjCrr7qoj35lz-6">
          <mxGeometry y="4" width="115.00000000000001" height="10" as="geometry" />
        </mxCell>
        <mxCell id="1ZE-qpVFjCrr7qoj35lz-8" value="&lt;span style=&quot;font-size: 10px;&quot;&gt;Пісня №1&lt;/span&gt;" style="strokeColor=inherit;fillColor=inherit;gradientColor=inherit;strokeWidth=1;shadow=0;dashed=0;align=center;html=1;shape=mxgraph.mockup.containers.rrect;rSize=0;fontSize=17;fontColor=#666666;fontStyle=1;resizeWidth=1;whiteSpace=wrap;" vertex="1" parent="1">
          <mxGeometry x="529.99" y="240" width="100" height="20" as="geometry" />
        </mxCell>
        <mxCell id="1ZE-qpVFjCrr7qoj35lz-9" value="&lt;span style=&quot;font-size: 10px;&quot;&gt;Пісня №2&lt;/span&gt;" style="strokeColor=inherit;fillColor=inherit;gradientColor=inherit;strokeWidth=1;shadow=0;dashed=0;align=center;html=1;shape=mxgraph.mockup.containers.rrect;rSize=0;fontSize=17;fontColor=#666666;fontStyle=1;resizeWidth=1;whiteSpace=wrap;" vertex="1" parent="1">
          <mxGeometry x="529.99" y="270" width="100" height="20" as="geometry" />
        </mxCell>
        <mxCell id="1ZE-qpVFjCrr7qoj35lz-10" value="&lt;span style=&quot;font-size: 10px;&quot;&gt;Пісня №3&lt;/span&gt;" style="strokeColor=inherit;fillColor=inherit;gradientColor=inherit;strokeWidth=1;shadow=0;dashed=0;align=center;html=1;shape=mxgraph.mockup.containers.rrect;rSize=0;fontSize=17;fontColor=#666666;fontStyle=1;resizeWidth=1;whiteSpace=wrap;" vertex="1" parent="1">
          <mxGeometry x="529.99" y="300" width="100" height="20" as="geometry" />
        </mxCell>
        <mxCell id="1ZE-qpVFjCrr7qoj35lz-11" value="&lt;span style=&quot;font-size: 10px;&quot;&gt;Пісня №4&lt;/span&gt;" style="strokeColor=inherit;fillColor=inherit;gradientColor=inherit;strokeWidth=1;shadow=0;dashed=0;align=center;html=1;shape=mxgraph.mockup.containers.rrect;rSize=0;fontSize=17;fontColor=#666666;fontStyle=1;resizeWidth=1;whiteSpace=wrap;" vertex="1" parent="1">
          <mxGeometry x="529.99" y="330" width="100" height="20" as="geometry" />
        </mxCell>
        <mxCell id="1ZE-qpVFjCrr7qoj35lz-12" value="&lt;span style=&quot;font-size: 10px;&quot;&gt;Пісня №5&lt;/span&gt;" style="strokeColor=inherit;fillColor=inherit;gradientColor=inherit;strokeWidth=1;shadow=0;dashed=0;align=center;html=1;shape=mxgraph.mockup.containers.rrect;rSize=0;fontSize=17;fontColor=#666666;fontStyle=1;resizeWidth=1;whiteSpace=wrap;" vertex="1" parent="1">
          <mxGeometry x="529.99" y="360" width="100" height="20" as="geometry" />
        </mxCell>
        <mxCell id="1ZE-qpVFjCrr7qoj35lz-13" value="" style="html=1;shadow=0;dashed=0;align=center;verticalAlign=middle;shape=mxgraph.arrows2.arrow;dy=0.6;dx=40;notch=0;fillColor=#008CFF;strokeColor=#008CFF;" vertex="1" parent="1">
          <mxGeometry x="609.99" y="245.13" width="10" height="9.75" as="geometry" />
        </mxCell>
        <mxCell id="1ZE-qpVFjCrr7qoj35lz-14" value="" style="html=1;shadow=0;dashed=0;align=center;verticalAlign=middle;shape=mxgraph.arrows2.arrow;dy=0.6;dx=40;notch=0;fillColor=#008CFF;strokeColor=#008CFF;" vertex="1" parent="1">
          <mxGeometry x="609.99" y="275.13" width="10" height="9.75" as="geometry" />
        </mxCell>
        <mxCell id="1ZE-qpVFjCrr7qoj35lz-15" value="" style="html=1;shadow=0;dashed=0;align=center;verticalAlign=middle;shape=mxgraph.arrows2.arrow;dy=0.6;dx=40;notch=0;fillColor=#008CFF;strokeColor=#008CFF;" vertex="1" parent="1">
          <mxGeometry x="609.99" y="305.12" width="10" height="9.75" as="geometry" />
        </mxCell>
        <mxCell id="1ZE-qpVFjCrr7qoj35lz-16" value="" style="html=1;shadow=0;dashed=0;align=center;verticalAlign=middle;shape=mxgraph.arrows2.arrow;dy=0.6;dx=40;notch=0;fillColor=#008CFF;strokeColor=#008CFF;" vertex="1" parent="1">
          <mxGeometry x="609.99" y="335.12" width="10" height="9.75" as="geometry" />
        </mxCell>
        <mxCell id="1ZE-qpVFjCrr7qoj35lz-17" value="" style="html=1;shadow=0;dashed=0;align=center;verticalAlign=middle;shape=mxgraph.arrows2.arrow;dy=0.6;dx=40;notch=0;fillColor=#008CFF;strokeColor=#008CFF;" vertex="1" parent="1">
          <mxGeometry x="609.99" y="365.12" width="10" height="9.75" as="geometry" />
        </mxCell>
        <mxCell id="1ZE-qpVFjCrr7qoj35lz-18" value="" style="endArrow=classic;html=1;rounded=0;entryX=0.002;entryY=0.292;entryDx=0;entryDy=0;entryPerimeter=0;" edge="1" parent="1" source="1ZE-qpVFjCrr7qoj35lz-3" target="1ZE-qpVFjCrr7qoj35lz-5">
          <mxGeometry width="50" height="50" relative="1" as="geometry">
            <mxPoint x="429.99" y="230" as="sourcePoint" />
            <mxPoint x="539.99" y="220" as="targetPoint" />
          </mxGeometry>
        </mxCell>
      </root>
    </mxGraphModel>
  </diagram>
</mxfile>
